<mxfile host="app.diagrams.net" agent="Mozilla/5.0 (Windows NT 10.0; Win64; x64) AppleWebKit/537.36 (KHTML, like Gecko) Chrome/138.0.0.0 Safari/537.36" version="26.1.0">
  <diagram name="Page-1" id="RQP5kNxrBPHeuqEZRj8b">
    <mxGraphModel dx="1434" dy="738" grid="1" gridSize="10" guides="1" tooltips="1" connect="1" arrows="1" fold="1" page="1" pageScale="1" pageWidth="850" pageHeight="1100" math="0" shadow="0">
      <root>
        <mxCell id="0" />
        <mxCell id="1" parent="0" />
        <mxCell id="pGDazYnwIN7U0w7V8adS-6" value="" style="edgeStyle=orthogonalEdgeStyle;rounded=0;orthogonalLoop=1;jettySize=auto;html=1;" edge="1" parent="1" source="pGDazYnwIN7U0w7V8adS-1" target="pGDazYnwIN7U0w7V8adS-4">
          <mxGeometry relative="1" as="geometry" />
        </mxCell>
        <mxCell id="pGDazYnwIN7U0w7V8adS-1" value="" style="image;aspect=fixed;html=1;points=[];align=center;fontSize=12;image=img/lib/azure2/other/Defender_Industrial_Robot.svg;" vertex="1" parent="1">
          <mxGeometry x="377.54" y="460" width="51.080000000000005" height="68" as="geometry" />
        </mxCell>
        <mxCell id="pGDazYnwIN7U0w7V8adS-19" value="" style="edgeStyle=orthogonalEdgeStyle;rounded=0;orthogonalLoop=1;jettySize=auto;html=1;" edge="1" parent="1" source="pGDazYnwIN7U0w7V8adS-2" target="pGDazYnwIN7U0w7V8adS-18">
          <mxGeometry relative="1" as="geometry" />
        </mxCell>
        <mxCell id="pGDazYnwIN7U0w7V8adS-2" value="" style="dashed=0;outlineConnect=0;html=1;align=center;labelPosition=center;verticalLabelPosition=bottom;verticalAlign=top;shape=mxgraph.webicons.whatsapp;fillColor=#4FE238;gradientColor=#138709" vertex="1" parent="1">
          <mxGeometry x="375.08000000000004" y="680" width="56" height="50" as="geometry" />
        </mxCell>
        <mxCell id="pGDazYnwIN7U0w7V8adS-7" value="" style="edgeStyle=orthogonalEdgeStyle;rounded=0;orthogonalLoop=1;jettySize=auto;html=1;" edge="1" parent="1" source="pGDazYnwIN7U0w7V8adS-4" target="pGDazYnwIN7U0w7V8adS-2">
          <mxGeometry relative="1" as="geometry" />
        </mxCell>
        <mxCell id="pGDazYnwIN7U0w7V8adS-4" value="Validar que wpp este abierto y logueado" style="rounded=0;whiteSpace=wrap;html=1;" vertex="1" parent="1">
          <mxGeometry x="340" y="570" width="123" height="60" as="geometry" />
        </mxCell>
        <mxCell id="pGDazYnwIN7U0w7V8adS-26" value="" style="edgeStyle=orthogonalEdgeStyle;rounded=0;orthogonalLoop=1;jettySize=auto;html=1;" edge="1" parent="1" source="pGDazYnwIN7U0w7V8adS-8" target="pGDazYnwIN7U0w7V8adS-24">
          <mxGeometry relative="1" as="geometry" />
        </mxCell>
        <mxCell id="pGDazYnwIN7U0w7V8adS-8" value="" style="shape=image;html=1;verticalAlign=top;verticalLabelPosition=bottom;labelBackgroundColor=#ffffff;imageAspect=0;aspect=fixed;image=https://cdn1.iconfinder.com/data/icons/Futurosoft%20Icons%200.5.2/128x128/mimetypes/xls.png" vertex="1" parent="1">
          <mxGeometry x="530" y="215.76" width="100" height="100" as="geometry" />
        </mxCell>
        <mxCell id="pGDazYnwIN7U0w7V8adS-14" value="" style="edgeStyle=orthogonalEdgeStyle;rounded=0;orthogonalLoop=1;jettySize=auto;html=1;" edge="1" parent="1" source="pGDazYnwIN7U0w7V8adS-12" target="pGDazYnwIN7U0w7V8adS-1">
          <mxGeometry relative="1" as="geometry" />
        </mxCell>
        <mxCell id="pGDazYnwIN7U0w7V8adS-12" value="" style="sketch=0;html=1;aspect=fixed;strokeColor=none;shadow=0;fillColor=#3B8DF1;verticalAlign=top;labelPosition=center;verticalLabelPosition=bottom;shape=mxgraph.gcp2.capabilities" vertex="1" parent="1">
          <mxGeometry x="174.13" y="460" width="100" height="76" as="geometry" />
        </mxCell>
        <mxCell id="pGDazYnwIN7U0w7V8adS-16" value="SELENIUM&lt;div&gt;&lt;br&gt;&lt;/div&gt;" style="text;html=1;align=center;verticalAlign=middle;resizable=0;points=[];autosize=1;strokeColor=none;fillColor=none;" vertex="1" parent="1">
          <mxGeometry x="363.08" y="440" width="80" height="40" as="geometry" />
        </mxCell>
        <mxCell id="pGDazYnwIN7U0w7V8adS-21" value="" style="edgeStyle=orthogonalEdgeStyle;rounded=0;orthogonalLoop=1;jettySize=auto;html=1;" edge="1" parent="1" source="pGDazYnwIN7U0w7V8adS-18" target="pGDazYnwIN7U0w7V8adS-20">
          <mxGeometry relative="1" as="geometry" />
        </mxCell>
        <mxCell id="pGDazYnwIN7U0w7V8adS-18" value="" style="html=1;verticalLabelPosition=bottom;align=center;labelBackgroundColor=#ffffff;verticalAlign=top;strokeWidth=2;strokeColor=#0080F0;shadow=0;dashed=0;shape=mxgraph.ios7.icons.pointer;" vertex="1" parent="1">
          <mxGeometry x="388" y="790" width="30" height="30" as="geometry" />
        </mxCell>
        <mxCell id="pGDazYnwIN7U0w7V8adS-20" value="" style="sketch=0;html=1;aspect=fixed;strokeColor=none;shadow=0;fillColor=#3B8DF1;verticalAlign=top;labelPosition=center;verticalLabelPosition=bottom;shape=mxgraph.gcp2.check_available" vertex="1" parent="1">
          <mxGeometry x="520" y="750" width="100" height="87" as="geometry" />
        </mxCell>
        <mxCell id="pGDazYnwIN7U0w7V8adS-22" value="VALIDAR Y CAPTURAR QUE MENSAJES&amp;nbsp;&lt;div&gt;FUERON ENVIADOS Y CUALES NO&lt;div&gt;&lt;br&gt;&lt;/div&gt;&lt;/div&gt;" style="text;html=1;align=center;verticalAlign=middle;resizable=0;points=[];autosize=1;strokeColor=none;fillColor=none;" vertex="1" parent="1">
          <mxGeometry x="443.08" y="710" width="250" height="60" as="geometry" />
        </mxCell>
        <mxCell id="pGDazYnwIN7U0w7V8adS-23" value="VALIDAR Y LIMPIAR DATOS&lt;div&gt;&lt;br&gt;&lt;/div&gt;" style="text;html=1;align=center;verticalAlign=middle;resizable=0;points=[];autosize=1;strokeColor=none;fillColor=none;" vertex="1" parent="1">
          <mxGeometry x="130" y="430" width="180" height="40" as="geometry" />
        </mxCell>
        <mxCell id="pGDazYnwIN7U0w7V8adS-34" value="" style="edgeStyle=orthogonalEdgeStyle;rounded=0;orthogonalLoop=1;jettySize=auto;html=1;" edge="1" parent="1" source="pGDazYnwIN7U0w7V8adS-24" target="pGDazYnwIN7U0w7V8adS-23">
          <mxGeometry relative="1" as="geometry" />
        </mxCell>
        <mxCell id="pGDazYnwIN7U0w7V8adS-24" value="" style="image;sketch=0;aspect=fixed;html=1;points=[];align=center;fontSize=12;image=img/lib/mscae/Managed_Desktop.svg;" vertex="1" parent="1">
          <mxGeometry x="157.63" y="220" width="133" height="95.76" as="geometry" />
        </mxCell>
        <mxCell id="pGDazYnwIN7U0w7V8adS-31" value="UI CON ENTRADA DE ARCHIVO Y&amp;nbsp;&lt;div&gt;VISUALIZACIÃ“N DE RESULTADOS&lt;/div&gt;" style="text;html=1;align=center;verticalAlign=middle;resizable=0;points=[];autosize=1;strokeColor=none;fillColor=none;" vertex="1" parent="1">
          <mxGeometry x="120" y="175.76" width="220" height="40" as="geometry" />
        </mxCell>
        <mxCell id="pGDazYnwIN7U0w7V8adS-32" value="SE CARGA ARCHIVO" style="text;html=1;align=center;verticalAlign=middle;resizable=0;points=[];autosize=1;strokeColor=none;fillColor=none;" vertex="1" parent="1">
          <mxGeometry x="500" y="180.76" width="140" height="30" as="geometry" />
        </mxCell>
      </root>
    </mxGraphModel>
  </diagram>
</mxfile>
